HIERARCHY
ROOT Hips
{
	OFFSET 0.00000 0.00000 0.00000
	CHANNELS 6 Xposition Yposition Zposition Yrotation Zrotation Xrotation 
	JOINT Lumbar
	{
		OFFSET 0 0 0
		CHANNELS 3 Zrotation Xrotation Yrotation
		JOINT Neck
		{
			OFFSET 0.00 0.2701 0.00
			CHANNELS 3 Zrotation Xrotation Yrotation
			End Site
			{
				OFFSET 0.00 0.1379 0.00
			}
		}
		JOINT RightShoulder
		{
			OFFSET 0.0119 0.2289 0.1181
			CHANNELS 3 Zrotation Xrotation Yrotation
			JOINT RightElbow
			{
				OFFSET 0.00 -0.1475 0.00
				CHANNELS 2 Zrotation Yrotation
				JOINT RightWrist
				{
					OFFSET 0.00 -0.1605 0.00
					CHANNELS 2 Zrotation Xrotation
					End Site
					{
						OFFSET 0.0040 -0.1068 0.0006
					}
				}
			}
		}
		JOINT LeftShoulder
		{
			OFFSET 0.0119 0.2289 -0.1181
			CHANNELS 3 Zrotation Xrotation Yrotation
			JOINT LeftElbow
			{
				OFFSET 0.00 -0.1475 0.00
				CHANNELS 2 Zrotation Yrotation
				JOINT LeftWrist
				{
					OFFSET 0.00 -0.1605 0.00
					CHANNELS 2 Zrotation Xrotation
					End Site
					{
						OFFSET 0.0040 -0.1068 -0.0006
					}
				}
			}
		}
	}
	JOINT RightHip
	{
		OFFSET 0.0316 -0.0424 0.0458
		CHANNELS 3 Zrotation Xrotation Yrotation
		JOINT RightKnee
		{
			OFFSET 0.00 -0.2438 0.00
			CHANNELS 1 Zrotation
			JOINT RightAnkle
			{
				OFFSET 0.00 -0.2449 0.00
				CHANNELS 3 Zrotation Xrotation Yrotation
				End Site
				{
					OFFSET 0.1237 -0.0542 0.0051
				}
			}
		}
	}
	JOINT LeftHip
	{
		OFFSET 0.0316 -0.0424 -0.0458
		CHANNELS 3 Zrotation Xrotation Yrotation
		JOINT LeftKnee
		{
			OFFSET 0.00 -0.2438 0.00
			CHANNELS 1 Zrotation
			JOINT LeftAnkle
			{
				OFFSET 0.00 -0.2449 0.00
				CHANNELS 3 Zrotation Xrotation Yrotation
				End Site
				{
					OFFSET 0.1237 -0.0542 -0.0051
				}
			}
		}
	}
}
MOTION
Frames: 17
Frame Time: 0.02
0 0.57926 0 181.81644 0 -3.99897 1.961 3.16205 -3.29008 -31.58903 5.24226 2.48212 -9.95849 -71.02003 -73.36847 23.15426 74.99036 -18.85867 -2.38997 -5.73807 67.31618 68.66848 23.21903 -69.49765 -23.81768 1.8198 -3.82226 3.4065 5.44175 -6.62625 -2.06193 -3.65132 -7.35934 -1.08276 5.8987 -2.52595 -8.0516 5.73003 2.41225 -0.11025
-1e-05 0.57926 0 181.81645 0 -3.9991 1.94993 3.16565 -3.29635 -31.57727 5.24973 2.4818 -9.99143 -71.02845 -73.41783 23.16506 74.94254 -18.8435 -2.36465 -5.74626 67.28603 68.69346 23.21502 -69.43785 -23.87555 1.81986 -3.82205 3.40644 5.42958 -6.62909 -2.06408 -3.71031 -7.34818 -1.08358 5.89961 -2.51452 -8.0524 5.73547 2.35369 -0.12221
-2e-05 0.57926 0 181.81646 0 -3.99923 1.93889 3.16923 -3.30253 -31.5658 5.25716 2.4815 -10.02384 -71.03681 -73.46672 23.17569 74.89513 -18.82838 -2.33967 -5.7541 67.25608 68.71809 23.21104 -69.37838 -23.93284 1.81995 -3.82188 3.40638 5.4174 -6.63184 -2.06619 -3.76873 -7.33701 -1.08443 5.90052 -2.50319 -8.05317 5.74088 2.29558 -0.13405
-3e-05 0.57926 0 181.81645 0 -3.99936 1.92791 3.17276 -3.30853 -31.5553 5.26446 2.48124 -10.05454 -71.04513 -73.5143 23.18575 74.84855 -18.813 -2.31575 -5.76075 67.22664 68.74179 23.20722 -69.32001 -23.98832 1.8201 -3.82191 3.40631 5.40487 -6.63424 -2.06822 -3.82531 -7.32553 -1.08537 5.90144 -2.49217 -8.05381 5.7462 2.23878 -0.14544
-4e-05 0.57925 0 181.81653 0 -3.99951 1.9167 3.17655 -3.3156 -31.53958 5.2724 2.48072 -10.09442 -71.05377 -73.56896 23.19882 74.79714 -18.79862 -2.28614 -5.77388 67.19452 68.77064 23.20267 -69.25622 -24.0533 1.81987 -3.8209 3.40626 5.39394 -6.63848 -2.07073 -3.8915 -7.31552 -1.08581 5.90232 -2.47956 -8.0551 5.75194 2.17512 -0.1591
-6e-05 0.57925 0 181.8164 0 -3.99961 1.90594 3.17978 -3.32036 -31.53495 5.27898 2.48076 -10.11476 -71.06167 -73.6085 23.20551 74.7563 -18.78241 -2.26865 -5.77314 67.16811 68.78842 23.1996 -69.20368 -24.09819 1.82048 -3.82209 3.40617 5.37983 -6.63885 -2.0722 -3.93737 -7.30255 -1.08731 5.90328 -2.47029 -8.05504 5.75681 2.12601 -0.16799
-8e-05 0.57925 -2e-05 181.81579 0 -3.99955 1.8964 3.18144 -3.31882 -31.56162 5.28205 2.48234 -10.08054 -71.06821 -73.60642 23.19411 74.74219 -18.75815 -2.285 -5.73416 67.15729 68.77644 23.20123 -69.18451 -24.08633 1.82322 -3.82976 3.40594 5.35459 -6.62794 -2.07072 -3.92565 -7.2793 -1.09197 5.90458 -2.47065 -8.05083 5.7592 2.11743 -0.16316
-0.00011 0.57925 -4e-05 181.81495 0 -3.99942 1.88729 3.18254 -3.31495 -31.59938 5.2837 2.48449 -10.02673 -71.07393 -73.58906 23.17638 74.73927 -18.73255 -2.31355 -5.68123 67.15223 68.75325 23.20427 -69.17641 -24.05447 1.82686 -3.83961 3.40567 5.32653 -6.61324 -2.0682 -3.89368 -7.25339 -1.09768 5.90594 -2.47432 -8.04531 5.7607 2.12348 -0.15361
-0.00014 0.57925 -6e-05 181.81414 0 -3.9993 1.87797 3.18392 -3.31206 -31.63166 5.28582 2.48638 -9.98217 -71.07957 -73.57855 23.16179 74.73271 -18.70953 -2.33628 -5.63441 67.14469 68.73445 23.20627 -69.16152 -24.03247 1.83021 -3.84825 3.40542 5.30132 -6.60066 -2.06618 -3.87194 -7.23004 -1.10277 5.9072 -2.47621 -8.04064 5.76264 2.12262 -0.14658
-0.00017 0.57925 -8e-05 181.81362 0 -3.99926 1.86874 3.18523 -3.30944 -31.66582 5.28864 2.4883 -9.93594 -71.08699 -73.56837 23.14593 74.71971 -18.67829 -2.36012 -5.58805 67.13672 68.71807 23.20991 -69.15342 -24.00692 1.83304 -3.85782 3.40515 5.26963 -6.58641 -2.06401 -3.8459 -7.20107 -1.10845 5.90877 -2.47924 -8.03492 5.76446 2.12287 -0.13797
-0.0002 0.57924 -0.0001 181.81247 0 -3.99905 1.85938 3.18653 -3.30577 -31.69866 5.28973 2.49025 -9.88881 -71.09063 -73.55395 23.13141 74.72319 -18.66374 -2.38459 -5.53806 67.13083 68.69469 23.21051 -69.13462 -23.98439 1.83719 -3.86597 3.4049 5.25058 -6.57471 -2.06193 -3.82397 -7.18306 -1.11318 5.90971 -2.48071 -8.03103 5.76629 2.1243 -0.13152
-0.00022 0.57924 -0.0001 181.8095 0 -3.99841 1.85 3.18797 -3.2993 -31.72541 5.2859 2.49254 -9.84155 -71.08306 -73.53097 23.12044 74.76581 -18.69644 -2.40746 -5.476 67.13089 68.64868 23.20217 -69.07645 -23.97188 1.84455 -3.86946 3.40491 5.26852 -6.57125 -2.06013 -3.81873 -7.19704 -1.11478 5.90896 -2.47669 -8.03307 5.76869 2.12522 -0.13218
-0.00024 0.57924 -0.0001 181.80595 0 -3.9976 1.8404 3.18943 -3.29195 -31.75039 5.28045 2.49478 -9.79453 -71.07186 -73.50441 23.11136 74.82517 -18.74582 -2.43057 -5.41175 67.13256 68.5971 23.19078 -69.00844 -23.9637 1.85326 -3.87146 3.40492 5.29899 -6.57042 -2.0585 -3.81826 -7.22194 -1.11544 5.90755 -2.47103 -8.0369 5.77107 2.12686 -0.13518
-0.00026 0.57923 -0.0001 181.80277 0 -3.99686 1.83061 3.19087 -3.28535 -31.776 5.27609 2.4968 -9.74899 -71.06303 -73.47983 23.1025 74.87946 -18.78702 -2.45383 -5.35214 67.13242 68.55214 23.18091 -68.94963 -23.95563 1.86151 -3.87425 3.40482 5.32283 -6.56822 -2.05693 -3.81538 -7.24119 -1.11671 5.90637 -2.46636 -8.03955 5.77324 2.1283 -0.13714
-0.00028 0.57923 -0.0001 181.79913 0 -3.99615 1.82204 3.19233 -3.27721 -31.80277 5.27025 2.49985 -9.69602 -71.05129 -73.45307 23.08879 74.92406 -18.83069 -2.47654 -5.27684 67.13698 68.4898 23.17046 -68.87132 -23.93804 1.86913 -3.87663 3.40519 5.35062 -6.56668 -2.05473 -3.81283 -7.26332 -1.11726 5.90547 -2.46081 -8.0437 5.77629 2.12972 -0.13885
-0.0003 0.57923 -9e-05 181.79631 0 -3.99534 1.81087 3.19373 -3.27206 -31.82653 5.26707 2.50076 -9.65887 -71.04454 -73.43038 23.08582 74.99188 -18.8732 -2.50012 -5.23365 67.13213 68.46214 23.16055 -68.83106 -23.94162 1.87838 -3.87951 3.40456 5.37308 -6.5644 -2.0539 -3.81099 -7.28197 -1.11908 5.90384 -2.45662 -8.04517 5.77754 2.13116 -0.14164
-0.00032 0.57923 -6e-05 181.7959 0 -3.9943 1.79273 3.19515 -3.27576 -31.8427 5.27222 2.49556 -9.66501 -71.05438 -73.41817 23.1112 75.12677 -18.90837 -2.52762 -5.28146 67.10038 68.53442 23.15228 -68.8986 -24.00203 1.89154 -3.88383 3.4013 5.37878 -6.55993 -2.05692 -3.81018 -7.28934 -1.12458 5.90042 -2.45681 -8.03878 5.77364 2.13247 -0.14744
